<?xml version="1.0" encoding="UTF-8" standalone="no"?>
<!DOCTYPE svg PUBLIC "-//W3C//DTD SVG 1.1//EN" "http://www.w3.org/Graphics/SVG/1.1/DTD/svg11.dtd">
<svg width="100%" height="100%" viewBox="0 0 7016 9934" version="1.1" xmlns="http://www.w3.org/2000/svg" xmlns:xlink="http://www.w3.org/1999/xlink" xml:space="preserve" xmlns:serif="http://www.serif.com/" style="fill-rule:evenodd;clip-rule:evenodd;stroke-linecap:round;stroke-linejoin:round;stroke-miterlimit:1.5;">
    <g transform="matrix(0.928559,0,0,0.928559,291.465,-198.912)">
        <g transform="matrix(24.8733,0,0,24.8733,-4124.35,-450.437)">
            <path d="M305.952,143.982L315.932,144.072L315.841,164.516L306.058,164.696L305.952,143.982Z"/>
            <path d="M257.862,144.411L257.862,320.343L280.443,296.389L280.443,237.638L340.43,237.638C340.43,237.638 368.056,244.387 365.482,269.21C365.997,305.015 313.676,302.814 313.676,302.814L289.077,323.157C289.077,323.157 377.264,338.393 389.504,275.73C392.478,226.656 351.069,220.136 351.069,220.136C351.069,220.136 377.962,206.17 375.428,182.386C369.456,146.468 330.951,144.187 330.951,144.187L330.679,167.346C330.679,167.346 351.565,169.739 350.264,188.788C350.76,208.778 330.821,214.988 330.821,214.988L281.747,214.988L281.747,165.228L291.153,165.228L290.973,144.294L257.862,144.411Z"/>
        </g>
        <g transform="matrix(24.8733,0,0,24.8733,-4124.35,-402.548)">
            <path d="M291.63,236.108L291.63,274.269L305.357,290.742L305.357,236.108L291.63,236.108Z" style="fill:white;stroke:white;stroke-width:1.08px;"/>
            <g transform="matrix(-0.998029,0,0,0.999384,620.271,0.145482)">
                <path d="M291.63,236.108L291.63,274.269L305.357,290.742L305.357,236.108L291.63,236.108Z" style="fill:white;stroke:white;stroke-width:1.08px;"/>
            </g>
        </g>
        <g transform="matrix(24.8733,0,0,24.8733,-4115.23,-496.046)">
            <path d="M247.072,135.365L228.623,106.374L305.934,106.374L305.934,216.41L291.219,216.41L291.219,117.136L246.853,117.136L247.072,135.365Z" style="fill:white;stroke:white;stroke-width:1.08px;"/>
            <g transform="matrix(-0.999861,-1.12072e-16,-1.09326e-16,0.999672,621.709,0.0612611)">
                <path d="M247.072,135.365L228.623,106.374L305.934,106.374L305.934,216.41L291.219,216.41L291.219,117.136L246.853,117.136L247.072,135.365Z" style="fill:white;stroke:white;stroke-width:1.08px;"/>
            </g>
        </g>
    </g>
</svg>
